<svg width="380" height="70" viewBox="0 0 380 70" fill="none" xmlns="http://www.w3.org/2000/svg">
<path d="M0 17.7273C0 7.93677 7.93677 0 17.7273 0H362.273C372.063 0 380 7.93677 380 17.7273V52.2727C380 62.0632 372.063 70 362.273 70H17.7273C7.93677 70 0 62.0632 0 52.2727V17.7273Z" fill="url(#paint0_linear_2593_1835)"/>
<path d="M0.5 17.7273C0.5 8.21291 8.21291 0.5 17.7273 0.5H362.273C371.787 0.5 379.5 8.21291 379.5 17.7273V52.2727C379.5 61.7871 371.787 69.5 362.273 69.5H17.7273C8.21291 69.5 0.5 61.7871 0.5 52.2727V17.7273Z" stroke="white" stroke-opacity="0.5" style="mix-blend-mode:overlay"/>
<path d="M107.414 46.5819L101.654 36.5739H98.5217V46.5819H94.4177V21.5619H103.058C104.978 21.5619 106.598 21.8979 107.918 22.5699C109.262 23.2419 110.258 24.1419 110.906 25.2699C111.578 26.3979 111.914 27.6579 111.914 29.0499C111.914 30.6819 111.434 32.1699 110.474 33.5139C109.538 34.8339 108.086 35.7339 106.118 36.2139L112.31 46.5819H107.414ZM98.5217 33.2979H103.058C104.594 33.2979 105.746 32.9139 106.514 32.1459C107.306 31.3779 107.702 30.3459 107.702 29.0499C107.702 27.7539 107.318 26.7459 106.55 26.0259C105.782 25.2819 104.618 24.9099 103.058 24.9099H98.5217V33.2979ZM135.344 36.1779C135.344 36.9219 135.296 37.5939 135.2 38.1939H120.044C120.164 39.7779 120.752 41.0499 121.808 42.0099C122.864 42.9699 124.16 43.4499 125.696 43.4499C127.904 43.4499 129.464 42.5259 130.376 40.6779H134.804C134.204 42.5019 133.112 44.0019 131.528 45.1779C129.968 46.3299 128.024 46.9059 125.696 46.9059C123.8 46.9059 122.096 46.4859 120.584 45.6459C119.096 44.7819 117.92 43.5819 117.056 42.0459C116.216 40.4859 115.796 38.6859 115.796 36.6459C115.796 34.6059 116.204 32.8179 117.02 31.2819C117.86 29.7219 119.024 28.5219 120.512 27.6819C122.024 26.8419 123.752 26.4219 125.696 26.4219C127.568 26.4219 129.236 26.8299 130.7 27.6459C132.164 28.4619 133.304 29.6139 134.12 31.1019C134.936 32.5659 135.344 34.2579 135.344 36.1779ZM131.06 34.8819C131.036 33.3699 130.496 32.1579 129.44 31.2459C128.384 30.3339 127.076 29.8779 125.516 29.8779C124.1 29.8779 122.888 30.3339 121.88 31.2459C120.872 32.1339 120.272 33.3459 120.08 34.8819H131.06ZM147.375 26.4219C148.911 26.4219 150.267 26.7339 151.443 27.3579C152.643 27.9579 153.579 28.7139 154.251 29.6259V26.7459H158.391V46.9059C158.391 48.7299 158.007 50.3499 157.239 51.7659C156.471 53.2059 155.355 54.3339 153.891 55.1499C152.451 55.9659 150.723 56.3739 148.707 56.3739C146.019 56.3739 143.787 55.7379 142.011 54.4659C140.235 53.2179 139.227 51.5139 138.987 49.3539H143.055C143.367 50.3859 144.027 51.2139 145.035 51.8379C146.067 52.4859 147.291 52.8099 148.707 52.8099C150.363 52.8099 151.695 52.3059 152.703 51.2979C153.735 50.2899 154.251 48.8259 154.251 46.9059V43.5939C153.555 44.5299 152.607 45.3219 151.407 45.9699C150.231 46.5939 148.887 46.9059 147.375 46.9059C145.647 46.9059 144.063 46.4739 142.623 45.6099C141.207 44.7219 140.079 43.4979 139.239 41.9379C138.423 40.3539 138.015 38.5659 138.015 36.5739C138.015 34.5819 138.423 32.8179 139.239 31.2819C140.079 29.7459 141.207 28.5579 142.623 27.7179C144.063 26.8539 145.647 26.4219 147.375 26.4219ZM154.251 36.6459C154.251 35.2779 153.963 34.0899 153.387 33.0819C152.835 32.0739 152.103 31.3059 151.191 30.7779C150.279 30.2499 149.295 29.9859 148.239 29.9859C147.183 29.9859 146.199 30.2499 145.287 30.7779C144.375 31.2819 143.631 32.0379 143.055 33.0459C142.503 34.0299 142.227 35.2059 142.227 36.5739C142.227 37.9419 142.503 39.1419 143.055 40.1739C143.631 41.2059 144.375 41.9979 145.287 42.5499C146.223 43.0779 147.207 43.3419 148.239 43.3419C149.295 43.3419 150.279 43.0779 151.191 42.5499C152.103 42.0219 152.835 41.2539 153.387 40.2459C153.963 39.2139 154.251 38.0139 154.251 36.6459ZM165.869 24.1179C165.125 24.1179 164.501 23.8659 163.997 23.3619C163.493 22.8579 163.241 22.2339 163.241 21.4899C163.241 20.7459 163.493 20.1219 163.997 19.6179C164.501 19.1139 165.125 18.8619 165.869 18.8619C166.589 18.8619 167.201 19.1139 167.705 19.6179C168.209 20.1219 168.461 20.7459 168.461 21.4899C168.461 22.2339 168.209 22.8579 167.705 23.3619C167.201 23.8659 166.589 24.1179 165.869 24.1179ZM167.885 26.7459V46.5819H163.781V26.7459H167.885ZM180.473 46.9059C178.913 46.9059 177.509 46.6299 176.261 46.0779C175.037 45.5019 174.065 44.7339 173.345 43.7739C172.625 42.7899 172.241 41.6979 172.193 40.4979H176.441C176.513 41.3379 176.909 42.0459 177.629 42.6219C178.373 43.1739 179.297 43.4499 180.401 43.4499C181.553 43.4499 182.441 43.2339 183.065 42.8019C183.713 42.3459 184.037 41.7699 184.037 41.0739C184.037 40.3299 183.677 39.7779 182.957 39.4179C182.261 39.0579 181.145 38.6619 179.609 38.2299C178.121 37.8219 176.909 37.4259 175.973 37.0419C175.037 36.6579 174.221 36.0699 173.525 35.2779C172.853 34.4859 172.517 33.4419 172.517 32.1459C172.517 31.0899 172.829 30.1299 173.453 29.2659C174.077 28.3779 174.965 27.6819 176.117 27.1779C177.293 26.6739 178.637 26.4219 180.149 26.4219C182.405 26.4219 184.217 26.9979 185.585 28.1499C186.977 29.2779 187.721 30.8259 187.817 32.7939H183.713C183.641 31.9059 183.281 31.1979 182.633 30.6699C181.985 30.1419 181.109 29.8779 180.005 29.8779C178.925 29.8779 178.097 30.0819 177.521 30.4899C176.945 30.8979 176.657 31.4379 176.657 32.1099C176.657 32.6379 176.849 33.0819 177.233 33.4419C177.617 33.8019 178.085 34.0899 178.637 34.3059C179.189 34.4979 180.005 34.7499 181.085 35.0619C182.525 35.4459 183.701 35.8419 184.613 36.2499C185.549 36.6339 186.353 37.2099 187.025 37.9779C187.697 38.7459 188.045 39.7659 188.069 41.0379C188.069 42.1659 187.757 43.1739 187.133 44.0619C186.509 44.9499 185.621 45.6459 184.469 46.1499C183.341 46.6539 182.009 46.9059 180.473 46.9059ZM197.292 30.0939V41.0739C197.292 41.8179 197.46 42.3579 197.796 42.6939C198.156 43.0059 198.756 43.1619 199.596 43.1619H202.116V46.5819H198.876C197.028 46.5819 195.612 46.1499 194.628 45.2859C193.644 44.4219 193.152 43.0179 193.152 41.0739V30.0939H190.812V26.7459H193.152V21.8139H197.292V26.7459H202.116V30.0939H197.292ZM210.002 29.6259C210.602 28.6179 211.394 27.8379 212.378 27.2859C213.386 26.7099 214.574 26.4219 215.942 26.4219V30.6699H214.898C213.29 30.6699 212.066 31.0779 211.226 31.8939C210.41 32.7099 210.002 34.1259 210.002 36.1419V46.5819H205.898V26.7459H210.002V29.6259ZM218.347 36.5739C218.347 34.5819 218.755 32.8179 219.571 31.2819C220.411 29.7459 221.539 28.5579 222.955 27.7179C224.395 26.8539 225.979 26.4219 227.707 26.4219C229.267 26.4219 230.623 26.7339 231.775 27.3579C232.951 27.9579 233.887 28.7139 234.583 29.6259V26.7459H238.723V46.5819H234.583V43.6299C233.887 44.5659 232.939 45.3459 231.739 45.9699C230.539 46.5939 229.171 46.9059 227.635 46.9059C225.931 46.9059 224.371 46.4739 222.955 45.6099C221.539 44.7219 220.411 43.4979 219.571 41.9379C218.755 40.3539 218.347 38.5659 218.347 36.5739ZM234.583 36.6459C234.583 35.2779 234.295 34.0899 233.719 33.0819C233.167 32.0739 232.435 31.3059 231.523 30.7779C230.611 30.2499 229.627 29.9859 228.571 29.9859C227.515 29.9859 226.531 30.2499 225.619 30.7779C224.707 31.2819 223.963 32.0379 223.387 33.0459C222.835 34.0299 222.559 35.2059 222.559 36.5739C222.559 37.9419 222.835 39.1419 223.387 40.1739C223.963 41.2059 224.707 41.9979 225.619 42.5499C226.555 43.0779 227.539 43.3419 228.571 43.3419C229.627 43.3419 230.611 43.0779 231.523 42.5499C232.435 42.0219 233.167 41.2539 233.719 40.2459C234.295 39.2139 234.583 38.0139 234.583 36.6459ZM248.217 29.6259C248.817 28.6179 249.609 27.8379 250.593 27.2859C251.601 26.7099 252.789 26.4219 254.157 26.4219V30.6699H253.113C251.505 30.6699 250.281 31.0779 249.441 31.8939C248.625 32.7099 248.217 34.1259 248.217 36.1419V46.5819H244.113V26.7459H248.217V29.6259ZM265.129 46.9059C263.569 46.9059 262.165 46.6299 260.917 46.0779C259.693 45.5019 258.721 44.7339 258.001 43.7739C257.281 42.7899 256.897 41.6979 256.849 40.4979H261.097C261.169 41.3379 261.565 42.0459 262.285 42.6219C263.029 43.1739 263.953 43.4499 265.057 43.4499C266.209 43.4499 267.097 43.2339 267.721 42.8019C268.369 42.3459 268.693 41.7699 268.693 41.0739C268.693 40.3299 268.333 39.7779 267.613 39.4179C266.917 39.0579 265.801 38.6619 264.265 38.2299C262.777 37.8219 261.565 37.4259 260.629 37.0419C259.693 36.6579 258.877 36.0699 258.181 35.2779C257.509 34.4859 257.173 33.4419 257.173 32.1459C257.173 31.0899 257.485 30.1299 258.109 29.2659C258.733 28.3779 259.621 27.6819 260.773 27.1779C261.949 26.6739 263.293 26.4219 264.805 26.4219C267.061 26.4219 268.873 26.9979 270.241 28.1499C271.633 29.2779 272.377 30.8259 272.473 32.7939H268.369C268.297 31.9059 267.937 31.1979 267.289 30.6699C266.641 30.1419 265.765 29.8779 264.661 29.8779C263.581 29.8779 262.753 30.0819 262.177 30.4899C261.601 30.8979 261.313 31.4379 261.313 32.1099C261.313 32.6379 261.505 33.0819 261.889 33.4419C262.273 33.8019 262.741 34.0899 263.293 34.3059C263.845 34.4979 264.661 34.7499 265.741 35.0619C267.181 35.4459 268.357 35.8419 269.269 36.2499C270.205 36.6339 271.009 37.2099 271.681 37.9779C272.353 38.7459 272.701 39.7659 272.725 41.0379C272.725 42.1659 272.413 43.1739 271.789 44.0619C271.165 44.9499 270.277 45.6459 269.125 46.1499C267.997 46.6539 266.665 46.9059 265.129 46.9059ZM295.34 36.1779C295.34 36.9219 295.292 37.5939 295.196 38.1939H280.04C280.16 39.7779 280.748 41.0499 281.804 42.0099C282.86 42.9699 284.156 43.4499 285.692 43.4499C287.9 43.4499 289.46 42.5259 290.372 40.6779H294.8C294.2 42.5019 293.108 44.0019 291.524 45.1779C289.964 46.3299 288.02 46.9059 285.692 46.9059C283.796 46.9059 282.092 46.4859 280.58 45.6459C279.092 44.7819 277.916 43.5819 277.052 42.0459C276.212 40.4859 275.792 38.6859 275.792 36.6459C275.792 34.6059 276.2 32.8179 277.016 31.2819C277.856 29.7219 279.02 28.5219 280.508 27.6819C282.02 26.8419 283.748 26.4219 285.692 26.4219C287.564 26.4219 289.232 26.8299 290.696 27.6459C292.16 28.4619 293.3 29.6139 294.116 31.1019C294.932 32.5659 295.34 34.2579 295.34 36.1779ZM291.056 34.8819C291.032 33.3699 290.492 32.1579 289.436 31.2459C288.38 30.3339 287.072 29.8779 285.512 29.8779C284.096 29.8779 282.884 30.3339 281.876 31.2459C280.868 32.1339 280.268 33.3459 280.076 34.8819H291.056Z" fill="white" fill-opacity="0.87"/>
<defs>
<linearGradient id="paint0_linear_2593_1835" x1="112.899" y1="-1.11649e-05" x2="209.482" y2="193.888" gradientUnits="userSpaceOnUse">
<stop stop-color="#C25F0D"/>
<stop offset="1" stop-color="#0E39C6"/>
</linearGradient>
</defs>
</svg>
